<?xml version="1.0" encoding="utf-8"?>
<!-- Generator: Adobe Illustrator 24.2.1, SVG Export Plug-In . SVG Version: 6.00 Build 0)  -->
<svg version="1.1" id="Layer_1" xmlns="http://www.w3.org/2000/svg" xmlns:xlink="http://www.w3.org/1999/xlink" x="0px" y="0px"
	 viewBox="0 0 150.34 48" style="enable-background:new 0 0 150.34 48;" xml:space="preserve">
<style type="text/css">
	.st0{fill:#FE704E;}
	.st1{fill:#002B57;}
</style>
<polygon class="st0" points="33.92,25.72 32.74,27.78 32.08,28.93 34.24,27.78 34.66,27.54 38.02,25.72 35.97,22.17 "/>
<polygon class="st0" points="47.12,27.54 47.54,27.78 49.73,28.93 49.04,27.78 47.86,25.72 45.81,22.17 43.76,25.72 "/>
<polygon class="st0" points="33.74,30.72 29.82,32.82 29.71,33.04 33.5,35.06 37.21,37.09 38.39,35.06 39.55,33.04 39.68,32.82 
	40.89,30.72 39.87,28.93 39.21,27.78 37.02,28.93 "/>
<polygon class="st0" points="42.23,33.04 43.42,35.06 44.57,37.09 48.31,35.06 52.07,33.04 51.96,32.82 48.04,30.72 44.76,28.93 
	42.6,27.78 41.92,28.93 40.89,30.72 42.1,32.82 "/>
<polygon class="st0" points="27.22,37.35 28.24,39.11 32.13,45.87 36.05,39.11 34.66,38.37 32.75,37.35 32.75,37.35 32.26,37.09 
	28.53,35.06 27.37,37.09 "/>
<polygon class="st0" points="53.57,39.11 54.57,37.35 54.41,37.09 53.25,35.06 49.52,37.09 49.03,37.35 49.02,37.35 47.12,38.37 
	45.76,39.11 49.65,45.87 "/>
<polygon class="st0" points="59.51,48 81.29,10.23 71.45,10.23 49.65,48 "/>
<polygon class="st0" points="22.3,48 32.13,48 10.36,10.23 0.49,10.23 "/>
<polygon class="st1" points="34.66,27.54 34.24,27.78 32.08,28.93 24.87,32.82 24.61,32.96 24.74,33.04 28.53,35.06 32.26,37.09 
	32.75,37.35 32.75,37.35 34.66,38.37 36.05,39.11 39.71,41.08 39.65,39.11 39.63,38.37 37.21,37.09 33.5,35.06 29.71,33.04 
	29.58,32.96 29.82,32.82 37.02,28.93 39.21,27.78 39.63,27.54 39.68,25.72 39.71,24.83 38.02,25.72 "/>
<polygon class="st1" points="42.15,27.54 42.6,27.78 44.76,28.93 51.96,32.82 52.23,32.96 52.07,33.04 48.31,35.06 44.57,37.09 
	42.15,38.37 42.13,39.11 42.07,41.08 45.76,39.11 47.12,38.37 49.02,37.35 49.03,37.35 49.52,37.09 53.25,35.06 57.04,33.04 
	57.17,32.96 56.91,32.82 49.73,28.93 47.54,27.78 47.12,27.54 43.76,25.72 42.07,24.83 42.1,25.72 "/>
<g>
	<path class="st1" d="M0.37,0.42C0.12,0.71,0,1.23,0,2l0,4.46c0,0.77,0.12,1.3,0.37,1.58c0.25,0.28,0.72,0.42,1.42,0.42h4.3
		c0.69,0,1.17-0.14,1.41-0.42c0.25-0.28,0.37-0.81,0.37-1.58v-1L6.19,5.06v1.82H1.68V1.51h4.51v1.6l1.68-0.31V2
		c0-0.77-0.12-1.3-0.37-1.58C7.25,0.14,6.78,0,6.08,0l-4.3,0C1.08,0,0.61,0.14,0.37,0.42"/>
	<path class="st1" d="M11.17,2v4.46c0,0.77,0.12,1.3,0.37,1.58c0.25,0.28,0.72,0.42,1.42,0.42h5.3c0.7,0,1.17-0.14,1.42-0.42
		c0.25-0.28,0.37-0.81,0.37-1.58V2c0-0.77-0.12-1.3-0.37-1.58C19.42,0.14,18.95,0,18.25,0l-5.3,0c-0.7,0-1.17,0.14-1.42,0.42
		C11.29,0.71,11.17,1.23,11.17,2 M18.36,1.51v5.36h-5.52V1.51H18.36z"/>
	<path class="st1" d="M27.76,8.47c0.73,0,1.32-0.05,1.79-0.16c0.47-0.1,0.85-0.27,1.17-0.5c0.5-0.36,0.89-0.86,1.17-1.49
		c0.28-0.63,0.42-1.35,0.42-2.14c0-1.34-0.36-2.37-1.07-3.09C30.53,0.36,29.51,0,28.19,0l-4.63,0v8.47H27.76z M25.23,6.88V1.51h2.97
		c0.78,0,1.37,0.22,1.77,0.67c0.4,0.45,0.6,1.1,0.6,1.97c0,0.97-0.24,1.67-0.72,2.09c-0.48,0.42-1.3,0.63-2.45,0.63H25.23z"/>
	<polygon class="st1" points="42.81,8.47 42.81,6.88 37.05,6.88 37.05,4.78 40.37,4.78 40.37,3.33 37.05,3.33 37.05,1.44 
		42.74,1.44 42.74,0 35.37,0 35.37,8.47 	"/>
	<polygon class="st1" points="52.98,8.47 52.98,5.26 56.01,5.26 56.01,3.71 52.98,3.71 52.98,1.48 58.58,1.48 58.58,0 51.3,0 
		51.3,8.47 	"/>
	<path class="st1" d="M60.51,2v4.46c0,0.77,0.12,1.3,0.37,1.58c0.25,0.28,0.72,0.42,1.42,0.42h5.3c0.7,0,1.17-0.14,1.42-0.42
		c0.25-0.28,0.37-0.81,0.37-1.58V2c0-0.77-0.12-1.3-0.37-1.58C68.76,0.14,68.29,0,67.59,0l-5.3,0c-0.7,0-1.17,0.14-1.42,0.42
		C60.63,0.71,60.51,1.23,60.51,2 M67.7,1.51v5.36h-5.52V1.51H67.7z"/>
	<path class="st1" d="M74.55,8.47v-3.2h1.59l2.9,3.2h2.4l-3.32-3.2h0.94c0.57,0,0.99-0.13,1.24-0.39c0.26-0.26,0.38-0.68,0.38-1.25
		V1.64c0-0.58-0.13-1-0.38-1.25C80.04,0.13,79.63,0,79.05,0L72.9,0v8.47H74.55z M74.55,3.82V1.47h3.77c0.29,0,0.49,0.05,0.6,0.15
		c0.11,0.1,0.16,0.27,0.16,0.52v1.02c0,0.25-0.05,0.43-0.16,0.52c-0.11,0.1-0.31,0.15-0.6,0.15H74.55z"/>
	<path class="st1" d="M66.01,41.53V46c0,0.77,0.12,1.3,0.37,1.58C66.63,47.86,67.1,48,67.8,48h5.3c0.7,0,1.17-0.14,1.42-0.42
		c0.25-0.28,0.37-0.81,0.37-1.58v-4.46c0-0.77-0.12-1.3-0.37-1.58c-0.25-0.28-0.72-0.42-1.42-0.42h-5.3c-0.7,0-1.17,0.14-1.42,0.42
		C66.14,40.24,66.01,40.76,66.01,41.53 M73.21,41.04v5.36h-5.52v-5.36H73.21z"/>
	<path class="st1" d="M80.05,48v-3.2h1.59l2.9,3.2h2.4l-3.32-3.2h0.94c0.57,0,0.99-0.13,1.24-0.39s0.38-0.68,0.38-1.25v-1.99
		c0-0.58-0.13-1-0.38-1.25c-0.26-0.26-0.67-0.39-1.24-0.39h-6.16V48H80.05z M80.05,43.35V41h3.77c0.29,0,0.49,0.05,0.6,0.15
		c0.11,0.1,0.16,0.27,0.16,0.52v1.02c0,0.25-0.05,0.43-0.16,0.52c-0.11,0.1-0.31,0.15-0.6,0.15H80.05z"/>
	<path class="st1" d="M89.44,41.53V46c0,0.77,0.12,1.3,0.37,1.58c0.24,0.28,0.72,0.42,1.42,0.42h4.3c0.69,0,1.17-0.14,1.41-0.42
		c0.25-0.28,0.37-0.81,0.37-1.58v-1l-1.68-0.41v1.82h-4.51v-5.36h4.51v1.6l1.68-0.31v-0.8c0-0.77-0.12-1.3-0.37-1.58
		c-0.25-0.28-0.72-0.42-1.41-0.42h-4.3c-0.7,0-1.17,0.14-1.42,0.42C89.56,40.24,89.44,40.76,89.44,41.53"/>
	<polygon class="st1" points="108.19,48 108.19,46.41 102.43,46.41 102.43,44.31 105.75,44.31 105.75,42.86 102.43,42.86 
		102.43,40.97 108.12,40.97 108.12,39.53 100.75,39.53 100.75,48 	"/>
	<path class="st1" d="M111.34,41.53v0.94c0,0.77,0.12,1.3,0.37,1.58c0.25,0.28,0.72,0.42,1.42,0.42h4.49v1.93h-5.09v-1l-1.48,0.36
		V46c0,0.77,0.12,1.3,0.37,1.58c0.25,0.28,0.72,0.42,1.43,0.42h4.45c0.7,0,1.18-0.14,1.43-0.42c0.25-0.28,0.37-0.81,0.37-1.58v-1.16
		c0-0.77-0.12-1.3-0.37-1.58c-0.25-0.28-0.72-0.42-1.43-0.42h-4.49v-1.82h4.71v0.96l1.48-0.41v-0.18c0-0.69-0.13-1.18-0.38-1.45
		c-0.26-0.27-0.72-0.41-1.4-0.41h-4.09c-0.7,0-1.17,0.14-1.42,0.42C111.46,40.24,111.34,40.76,111.34,41.53"/>
	<polygon class="st1" points="124.24,41.04 124.24,48 125.91,48 125.91,41.04 129.23,41.04 129.23,39.53 120.94,39.53 120.94,41.04 
			"/>
	<polygon class="st1" points="138.71,48 138.71,46.41 132.95,46.41 132.95,44.31 136.28,44.31 136.28,42.86 132.95,42.86 
		132.95,40.97 138.65,40.97 138.65,39.53 131.28,39.53 131.28,48 	"/>
	<path class="st1" d="M143.45,48v-3.2h1.59l2.9,3.2h2.4l-3.32-3.2h0.94c0.57,0,0.99-0.13,1.24-0.39s0.38-0.68,0.38-1.25v-1.99
		c0-0.58-0.13-1-0.38-1.25c-0.26-0.26-0.67-0.39-1.24-0.39h-6.16V48H143.45z M143.45,43.35V41h3.77c0.29,0,0.49,0.05,0.6,0.15
		c0.11,0.1,0.16,0.27,0.16,0.52v1.02c0,0.25-0.05,0.43-0.16,0.52c-0.11,0.1-0.31,0.15-0.6,0.15H143.45z"/>
</g>
</svg>
